<mxfile host="Electron" agent="Mozilla/5.0 (Windows NT 10.0; Win64; x64) AppleWebKit/537.36 (KHTML, like Gecko) draw.io/28.0.6 Chrome/138.0.7204.100 Electron/37.2.3 Safari/537.36" version="28.0.6">
  <diagram name="Page-1" id="LHFdduFbQQLtmDioapi6">
    <mxGraphModel dx="1226" dy="736" grid="1" gridSize="10" guides="1" tooltips="1" connect="1" arrows="1" fold="1" page="1" pageScale="1" pageWidth="827" pageHeight="1169" math="0" shadow="0">
      <root>
        <mxCell id="0" />
        <mxCell id="1" parent="0" />
        <mxCell id="W3RDuf8r377w-uaJnJ6--1" value="" style="rounded=0;whiteSpace=wrap;html=1;fillColor=none;" vertex="1" parent="1">
          <mxGeometry x="10" y="110" width="150" height="570" as="geometry" />
        </mxCell>
        <mxCell id="W3RDuf8r377w-uaJnJ6--2" value="&lt;font style=&quot;font-size: 21px;&quot;&gt;Sources&lt;/font&gt;" style="rounded=1;whiteSpace=wrap;html=1;" vertex="1" parent="1">
          <mxGeometry x="40.00000000000001" y="70" width="120" height="60" as="geometry" />
        </mxCell>
        <mxCell id="W3RDuf8r377w-uaJnJ6--3" value="" style="rounded=0;whiteSpace=wrap;html=1;fillColor=none;" vertex="1" parent="1">
          <mxGeometry x="180" y="90" width="490" height="590" as="geometry" />
        </mxCell>
        <mxCell id="W3RDuf8r377w-uaJnJ6--4" value="&lt;font style=&quot;font-size: 21px;&quot;&gt;Data Warehoues&amp;nbsp;&lt;/font&gt;" style="rounded=1;whiteSpace=wrap;html=1;" vertex="1" parent="1">
          <mxGeometry x="320" y="60" width="180" height="60" as="geometry" />
        </mxCell>
        <mxCell id="W3RDuf8r377w-uaJnJ6--5" value="" style="rounded=0;whiteSpace=wrap;html=1;fillColor=none;" vertex="1" parent="1">
          <mxGeometry x="690" y="85" width="120" height="595" as="geometry" />
        </mxCell>
        <mxCell id="W3RDuf8r377w-uaJnJ6--6" value="&lt;font style=&quot;font-size: 21px;&quot;&gt;consume&lt;/font&gt;" style="rounded=1;whiteSpace=wrap;html=1;" vertex="1" parent="1">
          <mxGeometry x="690" y="70" width="120" height="60" as="geometry" />
        </mxCell>
        <mxCell id="W3RDuf8r377w-uaJnJ6--7" value="Bronze layer" style="rounded=1;whiteSpace=wrap;html=1;fillColor=#ffe6cc;strokeColor=#d79b00;fontSize=18;" vertex="1" parent="1">
          <mxGeometry x="220" y="130" width="120" height="20" as="geometry" />
        </mxCell>
        <mxCell id="W3RDuf8r377w-uaJnJ6--8" value="" style="rounded=1;whiteSpace=wrap;html=1;fillColor=none;strokeColor=#d79b00;fontSize=18;" vertex="1" parent="1">
          <mxGeometry x="200" y="150" width="150" height="530" as="geometry" />
        </mxCell>
        <mxCell id="W3RDuf8r377w-uaJnJ6--10" value="Silver layer" style="rounded=1;whiteSpace=wrap;html=1;fillColor=#eeeeee;strokeColor=#36393d;fontSize=18;" vertex="1" parent="1">
          <mxGeometry x="360" y="130" width="130" height="20" as="geometry" />
        </mxCell>
        <mxCell id="W3RDuf8r377w-uaJnJ6--11" value="" style="rounded=1;whiteSpace=wrap;html=1;fillColor=none;strokeColor=#d79b00;fontSize=18;" vertex="1" parent="1">
          <mxGeometry x="360" y="150" width="150" height="530" as="geometry" />
        </mxCell>
        <mxCell id="W3RDuf8r377w-uaJnJ6--12" value="Gold layer" style="rounded=1;whiteSpace=wrap;html=1;fillColor=#ffcc99;strokeColor=#36393d;fontSize=18;" vertex="1" parent="1">
          <mxGeometry x="540" y="130" width="120" height="20" as="geometry" />
        </mxCell>
        <mxCell id="W3RDuf8r377w-uaJnJ6--13" value="" style="rounded=1;whiteSpace=wrap;html=1;fillColor=none;strokeColor=#d79b00;fontSize=18;" vertex="1" parent="1">
          <mxGeometry x="520" y="150" width="140" height="480" as="geometry" />
        </mxCell>
        <mxCell id="W3RDuf8r377w-uaJnJ6--14" value="&lt;font style=&quot;font-size: 15px;&quot;&gt;CRM&lt;/font&gt;" style="image;aspect=fixed;html=1;points=[];align=center;fontSize=12;image=img/lib/azure2/general/Folder_Blank.svg;" vertex="1" parent="1">
          <mxGeometry x="75.35999999999997" y="250" width="49.29" height="40" as="geometry" />
        </mxCell>
        <mxCell id="W3RDuf8r377w-uaJnJ6--15" value="" style="verticalLabelPosition=bottom;html=1;verticalAlign=top;align=center;strokeColor=none;fillColor=#00BEF2;shape=mxgraph.azure.file_2;pointerEvents=1;" vertex="1" parent="1">
          <mxGeometry x="110.01" y="270" width="27.5" height="30" as="geometry" />
        </mxCell>
        <mxCell id="W3RDuf8r377w-uaJnJ6--17" value="&lt;span style=&quot;font-size: 15px;&quot;&gt;EPR&lt;/span&gt;" style="image;aspect=fixed;html=1;points=[];align=center;fontSize=12;image=img/lib/azure2/general/Folder_Blank.svg;" vertex="1" parent="1">
          <mxGeometry x="75.35999999999997" y="370" width="49.29" height="40" as="geometry" />
        </mxCell>
        <mxCell id="W3RDuf8r377w-uaJnJ6--18" value="" style="verticalLabelPosition=bottom;html=1;verticalAlign=top;align=center;strokeColor=none;fillColor=#00BEF2;shape=mxgraph.azure.file_2;pointerEvents=1;" vertex="1" parent="1">
          <mxGeometry x="110.01" y="390" width="27.5" height="30" as="geometry" />
        </mxCell>
        <mxCell id="W3RDuf8r377w-uaJnJ6--19" value="" style="html=1;verticalLabelPosition=bottom;align=center;labelBackgroundColor=#ffffff;verticalAlign=top;strokeWidth=2;strokeColor=#d79b00;shadow=0;dashed=0;shape=mxgraph.ios7.icons.data;fillColor=#ffe6cc;" vertex="1" parent="1">
          <mxGeometry x="254" y="180" width="32" height="40" as="geometry" />
        </mxCell>
        <mxCell id="W3RDuf8r377w-uaJnJ6--20" value="" style="html=1;verticalLabelPosition=bottom;align=center;labelBackgroundColor=#ffffff;verticalAlign=top;strokeWidth=2;strokeColor=#666666;shadow=0;dashed=0;shape=mxgraph.ios7.icons.data;fillColor=#f5f5f5;fontColor=#333333;" vertex="1" parent="1">
          <mxGeometry x="413" y="180" width="32" height="40" as="geometry" />
        </mxCell>
        <mxCell id="W3RDuf8r377w-uaJnJ6--21" value="" style="html=1;verticalLabelPosition=bottom;align=center;labelBackgroundColor=#ffffff;verticalAlign=top;strokeWidth=2;strokeColor=#b46504;shadow=0;dashed=0;shape=mxgraph.ios7.icons.data;fillColor=#fad7ac;" vertex="1" parent="1">
          <mxGeometry x="574" y="180" width="32" height="40" as="geometry" />
        </mxCell>
        <mxCell id="W3RDuf8r377w-uaJnJ6--22" value="Raw Data" style="text;strokeColor=none;align=center;fillColor=none;html=1;verticalAlign=middle;whiteSpace=wrap;rounded=0;fontSize=13;" vertex="1" parent="1">
          <mxGeometry x="245" y="240" width="60" height="30" as="geometry" />
        </mxCell>
        <mxCell id="W3RDuf8r377w-uaJnJ6--25" value="&lt;font style=&quot;font-size: 16px;&quot;&gt;Cleaned, Standized data&lt;/font&gt;" style="text;strokeColor=none;align=center;fillColor=none;html=1;verticalAlign=middle;whiteSpace=wrap;rounded=0;fontSize=13;" vertex="1" parent="1">
          <mxGeometry x="370" y="240" width="120" height="30" as="geometry" />
        </mxCell>
        <mxCell id="W3RDuf8r377w-uaJnJ6--28" value="&lt;font style=&quot;font-size: 16px;&quot;&gt;Business-Ready Data&lt;/font&gt;" style="text;strokeColor=none;align=center;fillColor=none;html=1;verticalAlign=middle;whiteSpace=wrap;rounded=0;fontSize=13;" vertex="1" parent="1">
          <mxGeometry x="530" y="240" width="120" height="30" as="geometry" />
        </mxCell>
        <mxCell id="W3RDuf8r377w-uaJnJ6--34" value="" style="line;strokeWidth=1;rotatable=0;dashed=0;labelPosition=right;align=left;verticalAlign=middle;spacingTop=0;spacingLeft=6;points=[];portConstraint=eastwest;" vertex="1" parent="1">
          <mxGeometry x="370" y="290" width="120" height="10" as="geometry" />
        </mxCell>
        <mxCell id="W3RDuf8r377w-uaJnJ6--35" value="" style="line;strokeWidth=1;rotatable=0;dashed=0;labelPosition=right;align=left;verticalAlign=middle;spacingTop=0;spacingLeft=6;points=[];portConstraint=eastwest;" vertex="1" parent="1">
          <mxGeometry x="530" y="290" width="120" height="10" as="geometry" />
        </mxCell>
        <mxCell id="W3RDuf8r377w-uaJnJ6--36" value="" style="line;strokeWidth=1;rotatable=0;dashed=0;labelPosition=right;align=left;verticalAlign=middle;spacingTop=0;spacingLeft=6;points=[];portConstraint=eastwest;" vertex="1" parent="1">
          <mxGeometry x="224" y="290" width="120" height="10" as="geometry" />
        </mxCell>
        <mxCell id="W3RDuf8r377w-uaJnJ6--40" value="&lt;b&gt;&lt;font style=&quot;font-size: 13px;&quot;&gt;Object Type : Tables&lt;/font&gt;&lt;/b&gt;&lt;div&gt;&lt;b&gt;&lt;font style=&quot;font-size: 13px;&quot;&gt;&lt;br&gt;&lt;/font&gt;&lt;/b&gt;&lt;div&gt;&lt;b&gt;&lt;font style=&quot;font-size: 13px;&quot;&gt;&amp;nbsp; &amp;nbsp; Load&amp;nbsp; &amp;nbsp; &amp;nbsp; &amp;nbsp; &amp;nbsp; &amp;nbsp; &amp;nbsp; &amp;nbsp;&amp;nbsp;&lt;/font&gt;&lt;/b&gt;&lt;/div&gt;&lt;/div&gt;&lt;div&gt;&lt;ul&gt;&lt;li&gt;&lt;b style=&quot;background-color: transparent; color: light-dark(rgb(0, 0, 0), rgb(255, 255, 255));&quot;&gt;&lt;font style=&quot;font-size: 13px;&quot;&gt;Batch processing&lt;/font&gt;&lt;/b&gt;&lt;/li&gt;&lt;li&gt;&lt;b style=&quot;background-color: transparent; color: light-dark(rgb(0, 0, 0), rgb(255, 255, 255));&quot;&gt;&lt;font style=&quot;font-size: 13px;&quot;&gt;Full Load&amp;nbsp; &amp;nbsp; &amp;nbsp; &amp;nbsp; &amp;nbsp; &amp;nbsp; &amp;nbsp;&lt;/font&gt;&lt;/b&gt;&lt;/li&gt;&lt;li style=&quot;&quot;&gt;&lt;b style=&quot;background-color: transparent; color: light-dark(rgb(0, 0, 0), rgb(255, 255, 255));&quot;&gt;&lt;font style=&quot;font-size: 13px;&quot;&gt;Truncate &amp;amp; Insert&lt;/font&gt;&lt;/b&gt;&lt;/li&gt;&lt;/ul&gt;&lt;div style=&quot;&quot;&gt;&lt;b&gt;&lt;font style=&quot;font-size: 13px;&quot;&gt;&lt;br&gt;&lt;/font&gt;&lt;/b&gt;&lt;/div&gt;&lt;div style=&quot;&quot;&gt;&lt;b&gt;&lt;font style=&quot;font-size: 13px;&quot;&gt;&amp;nbsp; No Transformations&lt;/font&gt;&lt;/b&gt;&lt;/div&gt;&lt;/div&gt;&lt;div style=&quot;&quot;&gt;&lt;b&gt;&lt;font style=&quot;font-size: 13px;&quot;&gt;&lt;br&gt;&lt;/font&gt;&lt;/b&gt;&lt;/div&gt;&lt;div style=&quot;&quot;&gt;&lt;b&gt;&lt;font style=&quot;font-size: 13px;&quot;&gt;&lt;br&gt;&lt;/font&gt;&lt;/b&gt;&lt;/div&gt;&lt;div style=&quot;&quot;&gt;&lt;b&gt;&lt;font style=&quot;font-size: 13px;&quot;&gt;&amp;nbsp; Data Model&amp;nbsp; : NONE&lt;/font&gt;&lt;/b&gt;&lt;/div&gt;" style="text;strokeColor=none;align=left;fillColor=none;html=1;verticalAlign=middle;whiteSpace=wrap;rounded=0;" vertex="1" parent="1">
          <mxGeometry x="200" y="310" width="150" height="260" as="geometry" />
        </mxCell>
        <mxCell id="W3RDuf8r377w-uaJnJ6--42" value="&lt;b&gt;&lt;font style=&quot;font-size: 13px;&quot;&gt;Object Type : Tables&lt;/font&gt;&lt;/b&gt;&lt;div&gt;&lt;b&gt;&lt;font style=&quot;font-size: 13px;&quot;&gt;&lt;br&gt;&lt;/font&gt;&lt;/b&gt;&lt;div&gt;&lt;b&gt;&lt;font style=&quot;font-size: 13px;&quot;&gt;&amp;nbsp; &amp;nbsp; Load&amp;nbsp; &amp;nbsp; &amp;nbsp; &amp;nbsp; &amp;nbsp; &amp;nbsp; &amp;nbsp; &amp;nbsp;&amp;nbsp;&lt;/font&gt;&lt;/b&gt;&lt;/div&gt;&lt;/div&gt;&lt;div&gt;&lt;ul&gt;&lt;li&gt;&lt;b style=&quot;background-color: transparent; color: light-dark(rgb(0, 0, 0), rgb(255, 255, 255));&quot;&gt;&lt;font style=&quot;font-size: 13px;&quot;&gt;Batch processing&lt;/font&gt;&lt;/b&gt;&lt;/li&gt;&lt;li&gt;&lt;b style=&quot;background-color: transparent; color: light-dark(rgb(0, 0, 0), rgb(255, 255, 255));&quot;&gt;&lt;font style=&quot;font-size: 13px;&quot;&gt;Full Load&amp;nbsp; &amp;nbsp; &amp;nbsp; &amp;nbsp; &amp;nbsp; &amp;nbsp; &amp;nbsp;&lt;/font&gt;&lt;/b&gt;&lt;/li&gt;&lt;li style=&quot;&quot;&gt;&lt;b style=&quot;background-color: transparent; color: light-dark(rgb(0, 0, 0), rgb(255, 255, 255));&quot;&gt;&lt;font style=&quot;font-size: 13px;&quot;&gt;Truncate &amp;amp; Insert&lt;/font&gt;&lt;/b&gt;&lt;/li&gt;&lt;/ul&gt;&lt;div style=&quot;&quot;&gt;&lt;b&gt;&lt;font style=&quot;font-size: 13px;&quot;&gt;&lt;br&gt;&lt;/font&gt;&lt;/b&gt;&lt;/div&gt;&lt;div style=&quot;&quot;&gt;&lt;b&gt;&lt;font style=&quot;font-size: 13px;&quot;&gt;&amp;nbsp; Transformations&lt;/font&gt;&lt;/b&gt;&lt;/div&gt;&lt;/div&gt;&lt;div style=&quot;&quot;&gt;&lt;ul&gt;&lt;li&gt;&lt;b&gt;&lt;font style=&quot;font-size: 13px;&quot;&gt;Data Cleaning&lt;/font&gt;&lt;/b&gt;&lt;/li&gt;&lt;li&gt;&lt;b&gt;&lt;font style=&quot;font-size: 13px;&quot;&gt;Data Standrization&lt;/font&gt;&lt;/b&gt;&lt;/li&gt;&lt;li&gt;&lt;span style=&quot;font-size: 13px;&quot;&gt;&lt;b&gt;Data Normilization&lt;/b&gt;&lt;/span&gt;&lt;/li&gt;&lt;li&gt;&lt;span style=&quot;font-size: 13px;&quot;&gt;&lt;b&gt;Derived Columns&lt;/b&gt;&lt;/span&gt;&lt;/li&gt;&lt;li&gt;&lt;span style=&quot;font-size: 13px;&quot;&gt;&lt;b&gt;Data Enrichment&lt;/b&gt;&lt;/span&gt;&lt;/li&gt;&lt;/ul&gt;&lt;/div&gt;&lt;div style=&quot;&quot;&gt;&lt;b&gt;&lt;font style=&quot;font-size: 13px;&quot;&gt;&lt;br&gt;&lt;/font&gt;&lt;/b&gt;&lt;/div&gt;&lt;div style=&quot;&quot;&gt;&lt;b&gt;&lt;font style=&quot;font-size: 13px;&quot;&gt;&lt;br&gt;&lt;/font&gt;&lt;/b&gt;&lt;/div&gt;&lt;div style=&quot;&quot;&gt;&lt;b&gt;&lt;font style=&quot;font-size: 13px;&quot;&gt;&amp;nbsp; Data Model&amp;nbsp; : NONE&lt;/font&gt;&lt;/b&gt;&lt;/div&gt;" style="text;strokeColor=none;align=left;fillColor=none;html=1;verticalAlign=middle;whiteSpace=wrap;rounded=0;" vertex="1" parent="1">
          <mxGeometry x="360" y="300" width="150" height="340" as="geometry" />
        </mxCell>
        <mxCell id="W3RDuf8r377w-uaJnJ6--43" value="&lt;b&gt;&lt;font style=&quot;font-size: 13px;&quot;&gt;Object Type : Views&lt;/font&gt;&lt;/b&gt;&lt;div&gt;&lt;b&gt;&lt;font style=&quot;font-size: 13px;&quot;&gt;&lt;br&gt;&lt;/font&gt;&lt;/b&gt;&lt;div&gt;&lt;b&gt;&lt;font style=&quot;font-size: 13px;&quot;&gt;&amp;nbsp; &amp;nbsp;NO&amp;nbsp; Load&amp;nbsp; &amp;nbsp; &amp;nbsp; &amp;nbsp; &amp;nbsp;&lt;/font&gt;&lt;/b&gt;&lt;/div&gt;&lt;/div&gt;&lt;div&gt;&lt;div style=&quot;&quot;&gt;&lt;b&gt;&lt;font style=&quot;font-size: 13px;&quot;&gt;&lt;br&gt;&lt;/font&gt;&lt;/b&gt;&lt;/div&gt;&lt;div style=&quot;&quot;&gt;&lt;b&gt;&lt;font style=&quot;font-size: 13px;&quot;&gt;&amp;nbsp; Transformations&lt;/font&gt;&lt;/b&gt;&lt;/div&gt;&lt;/div&gt;&lt;div style=&quot;&quot;&gt;&lt;ul&gt;&lt;li&gt;&lt;b&gt;&lt;font style=&quot;font-size: 13px;&quot;&gt;Data Integration&amp;nbsp;&lt;/font&gt;&lt;/b&gt;&lt;/li&gt;&lt;li&gt;&lt;b&gt;&lt;font style=&quot;font-size: 13px;&quot;&gt;Aggreation&lt;/font&gt;&lt;/b&gt;&lt;/li&gt;&lt;li&gt;&lt;span style=&quot;font-size: 13px;&quot;&gt;&lt;b&gt;Business Logic&lt;/b&gt;&lt;/span&gt;&lt;/li&gt;&lt;/ul&gt;&lt;/div&gt;&lt;div style=&quot;&quot;&gt;&lt;br&gt;&lt;/div&gt;&lt;div style=&quot;&quot;&gt;&lt;b&gt;&lt;font style=&quot;font-size: 13px;&quot;&gt;&amp;nbsp; Data Model&amp;nbsp; :&amp;nbsp;&lt;/font&gt;&lt;/b&gt;&lt;/div&gt;&lt;div style=&quot;&quot;&gt;&lt;ul&gt;&lt;li&gt;&lt;b&gt;&lt;font style=&quot;font-size: 13px;&quot;&gt;Star Scheme&lt;/font&gt;&lt;/b&gt;&lt;/li&gt;&lt;li&gt;&lt;b&gt;&lt;font style=&quot;font-size: 13px;&quot;&gt;Flat Table&amp;nbsp;&lt;/font&gt;&lt;/b&gt;&lt;/li&gt;&lt;li&gt;&lt;b&gt;&lt;font style=&quot;font-size: 13px;&quot;&gt;Aggregated Tables&lt;/font&gt;&lt;/b&gt;&lt;/li&gt;&lt;/ul&gt;&lt;/div&gt;" style="text;strokeColor=none;align=left;fillColor=none;html=1;verticalAlign=middle;whiteSpace=wrap;rounded=0;" vertex="1" parent="1">
          <mxGeometry x="520" y="310" width="150" height="340" as="geometry" />
        </mxCell>
        <mxCell id="W3RDuf8r377w-uaJnJ6--44" value="&lt;font style=&quot;font-size: 11px;&quot;&gt;&lt;b&gt;Object Tyoe&lt;/b&gt;&amp;nbsp; : CSV files&lt;/font&gt;&lt;div style=&quot;text-align: left;&quot;&gt;&lt;b&gt;Interface : &lt;/b&gt;Files in Folder&lt;/div&gt;" style="text;strokeColor=none;align=center;fillColor=none;html=1;verticalAlign=middle;whiteSpace=wrap;rounded=0;" vertex="1" parent="1">
          <mxGeometry x="10" y="460" width="160" height="90" as="geometry" />
        </mxCell>
        <mxCell id="W3RDuf8r377w-uaJnJ6--45" value="gg" style="shape=image;aspect=fixed;image=data:image/png,iVBORw0KGgoAAAANSUhEUgAAAgAAAAIACAYAAAD0eNT6AAAACXBIWXMAAEuXAABLlwHuxW8gAAAAGXRFWHRTb2Z0d2FyZQB3d3cuaW5rc2NhcGUub3Jnm+48GgAAIABJREFUeJzt3Xu8p2O5+PHPmgNmGGchFDmGIYciEmGTEhVS/QoddgfZKbt+u1+HHUVHu4NsnXSQ7IokbNuZQtrCzinHchznHIaYYQ7r98e9ZhvTzKz1Xeu+nvv7PPfn/Xo9L6wZ1319Z635Ptf3eu4DSJIkSZIkSZIkSZIkSZIkSZIkSZIkSZIkSZIkSZIkSZIkSZIkSZIkSZIkSZIkSZIkSZIkSZIkSZIkSZIkSZIkSZIkSZIkSZIkSZIkSZIkSZIkSZIkSZIkSZIkSZIkSZIkSZK0EAOZYrwIWA9YEVgOGJchriRJSuYC04FHgduAe4DBsQQcbQGwCvAWYHdgR2DZsSQhSZJ6Mh24BDgX+AXw114D9FoAbAl8AngjMLHXwSRJUnazgNOALwLXjPR/GmkBsAbwdWC/3vOSJEkNGCR1A/4ZuG+43zySAuD/AN8GpowtL0mS1IAngA8AP1vcbxo/zK8dS2opLJkvL0mSFGhJYB9gJdIcgYVOFlxUB2AiqXLYJyQ1SZLUhFNInfxZC/7CwjoAA8DxwNuDk5IkSbE2AdYFfs0CnYCFFQBHAIc2kJQkSYo3FZhDWjb4vxZ8BLAzcD5u5CNJUpfMAXYFfjPvC/MXAJOAG4CXNJuTJElqwJ9J3YCZ8PxHAJ8E3lwiI0mSFG5FYAZwKTzXAZgC3AWsUCgpSZIU71FgbeDJec/63403f0mSum5F4CB4brLfQaUykSRJjToQ0iOA9YFby+YiSZIatO44YJfSWUiSpEbtPA7YtnQWkiSpUduNAzYqnYUkSWrUhuOAF5XOQpIkNWrtccBypbOQJEmNWnYAmMuijwUejauA3TLGG45FTP+bAkwonYQWaUlgcukktEgDwPKlk9BiNfEe9zpg74zxBieQ9+YP6czhxzLHHM4jDY8nSVKTViFvATDgqX+SJFXIAkCSpApZAEiSVKGIAmAwIKYkScrIDoAkSRWyAJAkqUIWAJIkVcg5AJIkVcgOgCRJFbIAkCSpQhYAkiRVyDkAkiRVyA6AJEkVsgCQJKlCFgCSJFXIAkCSpAo5CVCSpArZAZAkqUIWAJIkVcgCQJKkCk0IiOkcAEkau+WANYDVgRWH/nscsCwwfr5/TgBmD/0/04G5wCzgkQWuvwKPNpe++l1EASBJGt5EYH1gk6FrA2BNYDXSjX9ywJgzgTuGrjuHrtuA64a+5ge4ilgASFK8ScA2wHbAZsDGwIbAEg3nsRTw0qFrQU8CN5CKgT8ClwN/InUU1EEWAJKU33LAq4Adhq6taf5m36spwCuHrnmmkwqBy4FLgN+THi+oA5wDIEl5TAX2AvYGtqIbk6yXA/YYugCeAM4Hzhm6phXKSxnYAZCk0RlP+pS/F/BG4CVl02nEssA+QxekRwWnAL8Abi+VlEZvMPP1m0azl6RmbQ58E3iY/O+fbb6uBD5Omsio/D5F/u+ZBYAkDWM54H3AZZS/0fb7NYf0mGA/0koH5dGKAuDiqFcvSQ3bDjgJmEH5G2sbr3uBI7ErkIMFgCQFGwDeQPoUW/oG2pXrWeBk4BU9fB/0fNkLgC7MUpWkHJYE3kNa+34GsGvZdDplIumRwBWkwmq3sukIurFMRZLGYgngUNJOeMez8E1ylM+uwLmk+RSvKZxL1SwAJNVqgPSp9EbgG6Q999Wc7YGLsBAoJqIAGAyIKUk57UpatnYysG7hXGo3rxD4NbBe4VyqYgdAUk1eStrB7nzSbn3qH3uTziL4MmnDIQWzAJBUg6WAzwPXALsXzkWLtiTwf4FbgYNIj2kUxAJAUtftSNqy9tP0/4E8SlYFfkTaWG7Dsql0l3MAJHXVisB3SXuTbFQ4F43Oq0nF2+G4q2B2dgAkddHewC2k7XttI7fbJOCzpCOJLeQysgCQ1CVLkQ7qOQ1YuXAuymtr4H9IezZY1GVgASCpKzYm7TT3YbxBdNUk0p4NZwOrFc6l9ZwDIKntBkg3/auBzQrnMlbPkLYiPo20f35ONwIXAnfT/vfp3Unf7+1LJ9JmE0onIEljMBn4IbB/6URG4V7gKtKN7CrgJtLNee7Qrz9O3lUL/wV8fOjflyLNrn8ZsCWwxdC1TMbxor2QNMHzn4FvFc6llSwAJLXVWsDppBtXG9xO2vHuYtLytvsK5jITuHboOmHoaxNIxcAOpNn3O9H/G/JMBI4hnTL4fuDpsum0T+5jHy9oNn1JFdoeeIDyx9wu7ppFarn/E7D2KF7j45nz+WqP408EdgaOBm7OnEvE9UdgzR5fY5tkPw6YgIDnR716SSId2fsM5W84C7tmA+cBB5L2IRiL0gXAgqYCRwK3Zc4r5zWN9FijiywAJFVrAPgi5W8yC7v+RNrCdo2Mr7ffCoD5bQN8H3gyc445rieB12V8rf3CAkBSlcYB36H8zWX+azZwKnFH2fZzATDPFOAfgesz5zrWaxZpE6gusQCQVJ2JwM8of1OZdz1Jupm+OPJF044CYJ4BYDfSSYtzM+c92msu8LHA19w0CwBJVZlMWr5W+mYyCDxB2mVw1dBX/Jw2FQDz2xQ4mf4pBL4U+3Ib04oC4LyoVy+pKssCl1L+BvI34Ahg+diX+3faWgDMsyVwZqbcc7z2tu8OaQEgqQqTgd9S9qYxB/gBacOZEtpeAMyzE2mzo9JFwL8Fv85o2QsAzwKQ1G+WIE2ue3XBHC4hbTD0Hspu2NMFvwFeTloa+UDBPA4DPldw/L5jASCpn4wHTgReW2j8x4CPkGb2X1cohy6aC/yEdJzvMaTuSgmfAT5RaOy+lLvNcm6z6UvqiHGkm0SpFvGPgJXCX+XIdeURwMJsQ9mlgwfHv8TsfAQgqbO+CbyzwLgPAXsD7wIeKTB+ja4gPRb4Ks8dftSkY0jf86pZAEjqB4cMXU37NWmL2zMKjF27maTdE3cE7mh47PHAf5CKkGpZAEgq7R+Arzc85mzSs+A3kToAKucy0v79pzQ87mTgLGC9hsftGxEFwGBATEndtBFp05gmjya/C9gO+HKDY2rxngD2J03AfLbBcVchHSk9pcEx+4YdAEmlrEhqvTe5wc55pA1qrmxwTI3MIGkeyK4025XZGPgx7d8oqGcWAJJKGE9q+a7f4JjfBl4PPNrgmOrdpcArgGsbHPPNpPkIVbEAkFTCZ4CdGxprDvBR0tKv2Q2NqbG5C9ie9Iy+KUeRug/VcA6ApKbtCHy6obFmAvsC32hoPOXzFPBG4IcNjTeedOrkGg2NV5wdAElNWhk4ifRmG+1vpJb/rxsYSzFmA+8FvtDQeCsDJ1DJvbGKFympLwwAx9PMJ6zHSOfTX9TAWIo1SNoF718aGm8X0rkBnWcBIKkph9LM7muPkvby/30DY6k5X6G5iXpHkQ6D6jQLAElN2BD4YgPjTCcdJNTkDHI156vAxxsYZwnSo6qlGhirGCcBSoo2ABxH/Jvp08BeuMa/644mfUKP9lKam6xahB0ASdHeR/ySv1mktdyXBI+j/vBpmtk++l/o8KMACwBJkV4IfCl4jEFSkeFR5HX5GHBq8BgTgO/SzKqVxlkASIr0LeK3+j2CtJWr6jIXOAD4Q/A4Lwc+HDxGEc4BkBRlH1JbPtJ/kAoA1elp0sqSu4LHORxYNXiMxtkBkBRhVVLrNNK1wD8Gj6H+9wDpWOcZgWMsSzMTDxtlASApwkeBlQLjP0rqLjwdOIba44/Ah4LHeBfpJMnOsACQlNvqwD8Fj/Fb4MHgMdQuPwK+Fxh/HOm44s4cG+wcAEm5fRqYHDzGm4Cbgf9Dh96QNWaHAjcExn8V6YCiTrADICmndUiHtzRhTeCnwBXAdg2Nqf42E3grsfMBPkdH7p2deBGS+saRpG1Um/Ry4FJSC3j1hsdW//kT8MnA+JsC+wXGb4wFgKRcppI+fZUwDjgIuI20ZKvTe7hrWMcQuyvk50ibBLVa61+A+tok0nnsbwA2Ju0KN6loRiP3N2AacB3pPPkLSGeTa9GOoPyHiqWBzwLvIO0U9+uy6aiQuaQlotcSUwxuALwNODEgdqMGM1//2Wz66kMDpOfA08j/81Xquol00IwWbn1gDuW/TwteFwGbBb7uSI+T98/iq82m3xc+QdzP1vU0OwH1UwGvIXvAM6NevVphKdLErNJv/FHXd7FztjDHUf57s6hrFvDvxO5LEMECYOwmkuYERP1svba5l2IBoP42ATif8m/40dcPcv2BdcSKpEcmpb8vw12Pkk53a3qS4mhZAOSxM3E/Uxc0+DqyFwCln9epW74M7Fo6iQa8Gzi4dBJ95BDSs/d+twLpZMLrgNcVzkXNuQj4VVDsXWjx7oBuBKRcNqSjJ2YtwlG0r6UcYSnaVwxtCJwFnA6sVzgXNePjwLNBsVv7vmcHQLn8P+p6Nr488XuPt8H+tPeUtL1Iz4e/QjrsRd11O/D9oNj7EX/kdQgLAOUwkTpnyO9TOoE+8O7SCYzREqRPh7eTtpEdXzYdBToKeCog7mTg7QFxw1kAKIfNSM9Xa7MZaQJcrdYFdiidRCYrAd8gbSu8feFcFON+4Nig2O8LihvKOQDKYc3SCRRU82s/kO4dxLMVcBlpNdPaZVNRgK8Rc07A5sDWAXFDRRQAXXtD0PBq/hRc60TAccABpZMItCdwI2nVwDKFc1E+D5HOjIjQur8PdgCUQ82Pkmp97TsDLy6dRLBJpH0Dbia9ufvhphuOJmZb7/1o2RySWt+8JI3NO0sn0KA1gBNIh8u0ds23/tcdwGkBcVejZXNi7ABI6tUEUos8txtJh/jcGxA7h1cBV5KWk7V16aOS44Li7h8UN4QdAEm9ehUx8z6+D5xE2qjnSGIma43VONJBV7eSThtsy7bCer7fkPaAyO3NtGg/FAsASb2K2PNhJvCToX9/CvgM6QjpUwLGymFZ0t76N5COu1b7fCcg5guAbQLihrAAkNSriBveL0mH9czvTuAtwE7ANQFj5rA+cAZwLqlgUXv8jJjtgfcIiBnCOQCSerEJMfvn/2Qxv/Zb0vr8A4EHA8bOYTfgWtJx0asUzkUj8whwdkDcJo8IHhM7AJJ6EfHp/2Hg4mF+z1xSkbAR8HVgVkAeYzWBtCPcTcAHadmSsEqdGBBzC1oySdQCQFIvdg6IeSojX5f9OHAYMBX4r4BccliJNMv8j8T8eSmfs4C/ZY45Dtg9c8wQrZmtqOocS/6DO15IXevXc5sAbBsQ9+RR/D+3AK8nPW/9OmnlQL+ZClxIWnP+MdKBQ+ovM4FzgH0zx92RxT/W6huDma9fNZu++sB7yP9ztFpAntsG5LlLQJ79amvy//k9ytg/iEwktd4fDsgv1/Us8E16O3b48cw5fLWHsWvyDvJ/v28OyPNTufP0EYCkkXpVQMzzGfu2rLOA75Fm4X8XmDPWpAJMBD5MujEciNsK95OzyL818AakJYF9zQJA0khFbHOa8zn+w8AHSK33czPGzWl14MekHQUjCir17jHgqswxB4DtMsfMzgJA0kgMANtnjjlIzI36JtJSrP1Iewn0o61IZwucSDprQGVdEBAz99+X7CwAJI3ES8i/tOkm4IHMMef3S9JjgU+Tf0JpDgOk58+3kJ7vLlU2napdGBBzq4CYWbkRkKSR2CQg5u8CYi5oBnAUaZXAT+nP96elSWcf3ET+2egamd+TVgTkNDVzvOzsAEgaiU0DYl4WEHNR7iUtAX0FcHmD4/ZibdLZB78BXlY0k/o8Q/7tplcmLT3uWxYAkkYiYp/7JjoAC7qKNPnuIOD+AuOPxI6kPKeUTqQy/x0Qc7OAmNlYAEgaidyPAB6n3MY4g8AJpIN8jiB/6zeH8fj+3LQ/BMSsrgDox2dskkZvPPl32ruO8u8VTwGHk4qb08qmoj5wdUDMDQJiZmOFKWk4LwEmZY55beZ4Y3E78GbSvv3XFc5F5fyF/N2gtTPHy8oCQNJw1g2IeX1AzLG6GNgSOJh0VKzqMge4NXPMdTLHy8oCQNJwImYyR+yVnsMc4Nuk+QHHkH+LWPW3P2WOtxZ9fOiecwAkDWf1gJh3BMTM6THgUGBz4LzCuag5f84cbyKwZuaY2dgBkDSc3B2AZ4D7MseMciPpbPe9gNsK56J4dwfEtACQ1Fq5C4C7gbmZY0Y7k7Ra4CPA9MK5KE5EAbByQMwsLAAkDSf3I4B7Msdryizgm6QlkT+gfUWMhndXQMyVAmJm4RwAScPJXQD8NXO8pj0IvBd4Oc1uZ6x4DwbErKoAkNQtK2SO93DmeKX8D7ADaX7AnWVTUSbTyb/yw0cAklpryczxHs0cr7R58wMOB54um4rGaJC0AiSnFTPHy8YCQNLijAeWyByzawUApBv/EcBGwM/xUWib5f75XCpzvGwsACQtTu4tgAFmBMTsF/cAbwO2IZ0xr/bJ3cXJXUBn4yRASYsT8enl2YCY/eZKYHvgQOCBwrmoN7l/PnM/QsvGDoCkxYnoADwTELMfDQI/Adajf48d1t/L/fNpASCplewAjN28Y4enAmeUTUUjYAdAkoKML51AIX8G9gZ2I20x3LQnC4zZRgOZ4/XthlHOAZC0OLMCYkY8VmiT80mHDH2YZldETGtwrDbL/Ym9bx952QGQtDgRBcDkgJhtMxv4FrABcBzNHDt8eQNjdEHuAqBvH3lZAEhaHDsAsR4BPgRsAVwYOM49wC2B8bvEDoAkEbNm3wLg790A7AocEBT/l/h4dqRyd6iqKgD8IZO642/AnMwxLQAWLer985SguF2Ue+/+vt0e2g6ApMUZJB2QklPuw4W6ZN+AmPcA/x0Qt4smAMtljvlI5njZWABIGk7uAmDNzPG6Ygqwe0DcU7AzO1IrkX8ZYN8ef20BIGk4uZeqWQAs3F7EbLz0y4CYXbVKQMyqOgBWmlK33J853lqZ43XFWwJiTsP2fy/WDohpB0BSa92XOd5K9PERqYUsS9ohMDdn//dm7YCYFgCSWit3B2AAHwMsKKr9f3JAzC5bJyDmXQExs7AAkDSciC1k1w2I2WbO/u8PuQuAp4GHMsfMxgJA0nBuD4i5WUDMtoqa/W/7v3ebZo53J338PXASoKTh/Dkg5uYBMdsqqv3v5j+9mUz+ztQdmeNlZQdA0nCmATMzx3xZ5nhtFtH+d/Z/7zYh/z3xzszxsrIAkDScucBfMsfcEFcCQGr/vzYgru3/3k0NiHljQMxsLAAkjcQNmeNNIH3iqp2z//vHtgExrw2Imc2E0gk0aArpDWdVYInCuYzUbOBB4Gby78Ym9eJaYP/MMbcBrs4cs22i2v9XBMTtuu0zxxsE/pQ5ZlY1FAB7AocAr6E9N/4FzQEuBb4H/Bxbe2redQExdwaOC4jbFpGz/+cGxO2yFYGNMse8C3g8c8ysurwKYA3gYuBM0l+ytt78AcYDOwH/AVwJbFA0G9UoopX5Gup+DPkGYo5Gdu//3m1P/p/F3I/NsuvqX77NgT+QbppdsxWpvbdT4TxUl2nAvZljrkjdqwGi9v6/PCBu1+0aELPvH8N0sQOwGulT/wsL5xFpeeB0nESlZv0+IGbEG28bTMG9//vJHgExfxcQM6uIAiD3Wcq9+gF1nDa2LHAi3e3iqP9EFAC7BMRsgz2x/d8v1gXWzxxzFqkL3de61gHYCXhdwfGbtgXw9tJJqBoRreUdSR2t2uwXEPNeYoq0rov49H8N8FRA3Ky69unxA6UTKOD9pRNQNa4Gnsgcc0lg78wx+13k5j/O/u/dmwJiXhYQM7suFQATiflL1e9eCaxSOglVYRbw24C4ufcX6HdRs//d/Kd3q5G6ULldGBAzuy49AlgLWK7Q2CWNB15aOglVI+KNbVdgpYC4/Sqq/e/e/73bj/QemtMzxBTK2XWpA7Ba6QQK6vKKB/WX8wJiTiSmDduPliFm859Tsf0/GhFLMS8B/hYQN7suFQCTSydQUM2vXc26ifwHAwG8LSBmP4pq/3v0b+/WJ//2vwDnBMQM0aUCQFIzTg+I+RrSCYFdF7H3/724+c9ovJeYZetnB8QM0aU5AJKa8euAmAPAwQFx+8kyxCw5c/Z/7yYA7wyIewupS9YKdgAk9epy4KGAuAeSbpJd5eY//eONwOoBcX8REDOMBYCkXs0h5qazHDGfyvpFxISz+7H9PxqHBcW1AJDUeScFxf0Q5bcTj7AMMfuUnILt/15tT9o/JbcbgBsD4oZxDoCk0fg9cEdA3E1IrfKuiWr/O/u/dx8LituqT/9gB0DS6AwS1wU4nO51ASI2/7kP2/+92hjYKyDuXOAnAXFDWQBIGq0fEtN+3pJunQ/g7P/+cTgx971zgbsD4oayAJA0WncAFwTF/jzdeX+y/d8fNgX2CYp9fFDcUBNKJ9Dn3gxcmznmC/DITnXH94DdAuJuSvr714UlbhGb/9j+792RxBSVDwJnBsQNF1EAdGkS4H3A7ZljzsgcTyrpDNJOdGsExP78UPxnA2I3Jar9797/vdmBmGf/kB6FzQqKHaorLTZJZcwCjg2KvRHwkaDYTdmTmLM6PPp35MYBXyNmYuks4LiAuI2wAJA0Vt8l7vSzzwIvDordhIjZ/w9g+78X7wG2Dor9U2BaUOxw7gMgaaweA04Iij0Z+HJQ7GhL4+Y/pa1IevYfYZDUWWgtOwCScvgKcc/q9wd2D4od6Q3Y/i/tq6SJ1xHOIe3+11oWAJJyuJvUDo3yTWJuppEilpw5+3/kdgbeFRj/i4GxG2EBICmXLwCzg2JvSPo01xZLA68LiPsrbP+PxGTS3JSoHSXPAy4Nit0YCwBJufyF2C7AB4l5ph7h9cR0LNz8Z2SOBtYLjP+vgbEb4yRASTl9mri9LgZIkw2jnunmFHH07wPAZQFxu2YP4AOB8f8TuCIwfmPsAEjK6V5i10W/IDh+Dkvj3v+lrE4qEqNa/3PpyKd/sACQlN8XgccD4+8DHBIYf6xs/5cxgXRC5SqBY5wA/DEwfqMsACTl9ghpG99IXwdeEzzGaEW1/38XELdLvkTsz8STwKcC4zfOOQCSIhwDXB8YfwLpE/E6gWOMxmTiNv+ZExC3K94IHBY8xlHA/cFjNMoOgKQIs4l/Q16J9Fw84qjd0Xo9aQ5Abl04FTHK5sCJxD33h3Qo3DcC4xdhASApygXEP7feEvgBsW/+vYjY+/9+nP2/KGuQZuUvEzzOIcAzwWM0zgJAUqQPk84KiPQ24FvBY4zEZGI2//Ho34WbQrr5rxk8zknA2cFjFOEcAEmRHgA+1sA4HyLtQVCS7f/mLEH6c3lZ8Dh/BT4aPEYxdgAkRfsR6XFAtM+TdgssJar93/otZzObAPwM2K2BsQ4DHm5gnCIsACRFGySdyR65N8A8xwJvbWCcBbn3fzPGkQrKNzcw1n+SJhd2lgWApCbcTTOb94wjvWkf0MBY83sdMe1/N/95znjg+8A7GhjrAVLR2mnOAZDUlJOAnzcwzgTgx8BHGhhrHvf+jzUe+CHw7gbGGgTeCzzUwFhF2QGQ1KQPAnc0MM4AabfATzYw1mRi9v4/FTf/AVgKOI3mujrHAGc1NFZRFgCSmvQ46dNyU2uqjwK+Quw+Abb/46wInAu8oaHx/gh8oqGxirMAkNS0q2hmaeA8HwdOJuYmDbb/o7yEdP7Bqxsa7zFgX2BmQ+MVZwEgqYRjSXMCmrIv6Yb6osxxozb/+RV1t/+3B/4b2Kih8eYCbydt+VsNJwFKKuW9wB8aHO9lwNXAThljRm3+c3JAzLZ4H3ARscf6LuhfgXMaHK8v2AGQVMpM0nruJk9YW5n0TPngTPH2zRRnfrW2/ycBJwDfJe3015RTgS80OF7fsACQVNK9wJuApxsccwng34HTGdunzMmkDkBuNbb/NyG1/Jvev+EK4J1U2rm2AJBU2hWkiXSzGx53L+AGRn8Tt/2fxwGkR0GbNTzuHcDewIyGx+0bzgGQ1A/OIp0c2LQXAGcCXyOtN+/FPvnTqar9/0LSdrsnkLopTXqUNHnzwYbH7St2ACT1i28DRxYYd4B04tt1jPyAmcnAngG51ND+HwA+ANxIzCOU4TxF2lfg5gJj9xULAEn95DPANwuNvT5pguAvSJ9OF2cPPPp3NDYGfksq9pYrMP5MUtv/8gJj9x0LAEn95qPA8QXHfwtwE3Ao6VyBhYk4+vdB4JKAuP1gBVJhdw2wQ6EcZpG+txcWGr/vOAdAUr8ZBN5POtCnlGWBb5AmCe7P898rnf0/chNJSy5vI83xmFgoj9mk2f5nFhq/L9kBkNSP5pJOfju2cB4bkk4wvI70qX+ANHlsmYCxujT7fxzpz+tG0pLLlQrm8izwNtKjHc1nUe0tSSptkOdWBhxSMhHSOvWTgd+TipPcHgQuDYjbtImkm+2ngA0K5wJpid8+wNmlE+lHFgCS+tkg8E/ANOBLhXMBeGVQ3LYf/TuF1LE5jPznLYzWU6QJfz7zX4SIAsA5AJJy+zIwnfRIYHzhXCK0dfb/ZqQzHQ4kzZvoFw+QlvpdVTqRfmYHQFJbfIfUKj+JtG98V7Rt9v/ypDMQ3gtsUziXhZm3v8CdhfPoexYAktrkNGA74AxgrcK55NKG9v8kYFfSxL59aH7nvpG6iJTf46UTaQMLAEltcw3pWfzpwFaFc8nh1NIJLML6pA2P9gB2pP+7LscDHyLN+tcIWABIaqN7gVeTjo59R+FcxuIh0s54/WBDUndlB9IN/yVl0xmxZ0gTRb9fOpG2cRKgpLZ6mrS5y+XA14Ely6YzKkuQ5jRcR9p06HrgbmIfCUwm3eynDl2bAVswtqORS7mH1PK/snQibWQHQFLbfRu4mrTRy9plU+nZ8qSdBvef72uzSEXAnUPX/cAj811P8NwRttNJ+xJM4rnTDFcgbVS0MummvhKwBrAO6c9n1ZiX0rjzSN2fh0sn0lYWAJK64A/A5qRlgu8snMtYTQTWHbr092YBXwA+R8ymTNVwK2BJXfEEcACpAHiicC6KcSPwCuBwvPmPmYfjSutdAAALEklEQVQBSeqan5KebZ9bOhFlMxf4FrA1aRWIMrADIKmL7gZeSzr+9ZHCuWhsbgN2IZ0LMWOY36seWABI6rJTSLPcf146EfXsGeCzwKbAb8qm0k0WAJK67j7SCXW7ADcXzkUjcw7wMtJEPzf2CeIcAEm1uIi0UuCfgccK56KFu4W0j/8eWKyFswMgqSbPAl8D1iNtHuSny/7wKOko4anAfxXOpRoWAJJqNO+G81Lgx8DsotnUazppSd86pIJsVtFsKmMBIKlmtwPvIh188z0sBJryFPBl0nkDR+C+DUU4B0CS0pa77ycVAseQblDK72HSDf/FwCdInRgVYgdAkp5zJ3Ao6Qb1GdIKAo3dLcD7gBeRWv7uzdAHLAAk6e89AhxJOjxnX+BC7G72ahZwKmlG/8ak43pnFs1Iz+NhQFK3TSF96lqV9hT8M0gn4N1J+f3e593ETgU24LmzBl5UMqk+dxtwPHAC8GDhXLQYFgBS94wD3gocBOxIOnO+jR4EzgC+QToEprRbgU8D/0r6c303aavhtv755jSNtOviL0gnM9otaYG2fCKQNDKbA1cDJwH/QLtvTqsC/whcBxzHc+fdlzYXuJjUCVgReCPwQ+o7l/520oTJHUhzJg4DrsCbf2vYAZC6Y0/gZ8AypRPJbDzwQWBL4A301432KeD0oWs8sA2wG7Dr0L936T12BvBb0ja9Z5M6ImqxiB9Oqz+peVuS2q+TSycSaBvgNNKe/s8UzmVh5gCXD12HA8uSHhVsN3S9HJhUKrlReIz0Wn4HXAZciZP4OqVL1alUq0nAr+j2zX+e7UknxH2ydCIj8ARw5tAFMJH0iGYL0kE3m5NOKpxSJLvnuw+4Hrh26J/XkOZdlJ6EqUAWAFL7HUJ6BluLj5DmBEwrnUiPZgFXDV3zW520AdH6pDMK1hy6VgPWApYe47izScsaHyHd6O8Yuu4c+udtuC6/Sj4CkNrvg6UTaNgk0gz8z5VOJJP7h65LFvHrSwHLAcsPXfM6BsuQugqQ3ncfH/r3maTn9dOBv873del57ABI7bY56SCV2uxNdwqA4cwculxTr6xcBii12+alEyhkKr5/SWPiXyCp3VYrnUAhE4GVSychtZmnAUrtNtYJYm3Wtf0OpEbZAZAkqUIWAJIkVchHAJIkVcgOgCRJFbIAkCSpQhYAkiRVyAJAkqQKOQlQkqQK2QGQJKlCHgYkaX7PAtsFxN0N+EJAXEmjZAEgaX6DwNUBcdcPiClpDJwDIElShZwDIElShSwAJEmqkAWAJEkVcg6AJEkVsgMgSVKFLAAkSaqQBYAkSRVyDoAkSRWyAyBJUoUsACRJqpAFgCRJFbIAkCSpQk4ClCSpQnYAJEmqkAWAJEkVsgCQJKlCzgGQJKlCdgAkSaqQBYAkSRWyAJAkqULOAZAkqUJ2ACRJqpAFgCRJFbIAkCSpQs4BkCSpQnYAJEmqkAWAJEkVsgCQJKlCA+R/Zj8TmJE55khMBJbJHPNJYHbmmOOA5TLHfBp4JnPMXiwJTM4cczowN3PMCcCUzDEjfkZ6MQlYKnPMxzLHA1gCWDpzzIifEalfLUX6+55NRAEgSZL6nI8AJEmqkAWAJEkVsgCQJKlCFgCSJFXIAkCSpApZAEiSVCELAEmSKmQBIElShSwAJEmqkAWAJEkVsgCQJKlCFgCSJFXIAkCSpApZAEiSVCELAEmSKmQBIElShSwAJEmqkAWAJEkVmhAQ83+AqwLiSpJUqy2Al+cOOpj5OiJ3gpIkVe5TZL5f+whAkqQKWQBIklQhCwBJkioUUQAMBsSUJEkZ2QGQJKlCFgCSJFXIAkCSpApZAEiSVCELAEmSKmQBIElShVwGKElShewASJJUIQsASZIqZAEgSVKFnAMgSVKF7ABIklQhCwBJkipkASBJUoWcAyBJUoXsAEiSVCELAEmSKmQBIElShZwDIElShewASJJUIQsASZIqZAEgSVKFnAMgSVKF7ABIklQhCwBJkipkASBJUoUmAHPJWwjsAPxLxnjq3QxgZukktFB+b/qX35v+5fcG1s4cb+4A8CSwTObAkiSpfz0xDpheOgtJktSo6eOAO0pnIUmSGnX7OOCm0llIkqRG3TwOuLx0FpIkqVGXDQBrAXcBA4WTkSRJ8QaBNccB92AXQJKkWlwC3Ddv/f+PSmYiSZIacwI81/ZfEvgLsEaxdCRJUrRpwHrAM/M6AM8AXyqXjyRJasBRpHv+8yb+jQeuBLYokZEkSQp1NbANMAeefwbAHOA9uN+yJEldMwN4N0M3f0if+uf3APAIsGeDSUmSpFgHA2fP/4UFCwCAq4Clge2byEiSJIX6AnD0gl9cWAEAcAGwPLBtZEaSJCnU14BPLOwXFlUAAJwDPAXszPPnCkiSpP42G/gYcMSifsNItv99NXAi8KJMSUmSpDh3Ae8ALlvcb1pcB2D+QN8HJgBbDf1TkiT1lxnAvwFvJW3ut1i9HgC0OnAYcBCwcq+ZSZKk7B4Gfkx63v/ASP+n0Z4AOBHYfejaCdhw6GuSJCnWLOAW4GLgXOC8oa/1JNcRwBOAdYAVgGUzxZQ0OlNJnwRyOgy4PnNMSb15AngMuIM0yU+SnmcH0nnfOa8dGn0FksK5vE+SpApZAEiSVCELAEmSKmQBIElShSwAJEmqkAWAJEkVsgCQJKlCFgCSJFXIAkCSpApZAEiSVCELAEmSKmQBIElShSwAJEmqkAWAJEkVsgCQJKlCFgCSJFXIAkCSpApZAEiSVCELAEmSKmQBIElShSwAJEmqkAWAJEkVsgCQJKlCFgCSJFXIAkCSpApZAEiSVCELAEmSKmQBIElShSwAJEmqkAWAJEkVsgCQJKlCFgCSJFXIAkCSpApZAEiSVCELAEmSKmQBIElShSwAJEmqkAWAJEkVsgCQJKlCFgCSJFXIAkCSpApZAEiSVCELAEmSKmQBIElShSwAJEmqkAWAJEkVsgCQJKlCFgCSJFXIAkCSpApZAEiSVCELAEmSKmQBIElShSaUTqCDlgXGl05CVZsSFHOFgLjSSM0BniidRJcMlE6gAzYB3gG8HlgPmFQ2HUnqrBnAbcBZwE+BG8um024WAKO3CnA06ebvoxRJatZc4CfAx4G/Fs6llSwARmcqcAawduE8JKl2dwB7ATeUTqRtLAB692LgD8ALSiciSQJSB2Ab4PbSibSJBUBvxgNXAluUTkSS9DxXAduSJgtqBHx23ZuD8OYvSf1oa+CA0km0iR2A3twMbFg6CUnSQt0MvLR0Em1hB2DkNsabvyT1s42GLo2ABcDIbVs6AUnSsF5ZOoG2sAAYuReWTkCSNKw1SifQFhYAI7dE6QQkScNasnQCbWEBMHIPlE5AkjSs+0on0BYWACP3p9IJSJKG5fkAI+QywJEbT+oCrFw6EUnSQj0CrAbMLp1IG9gBGLk5wI9LJyFJWqQf4s1/xOwA9GZF4M94Lrok9ZtHSUeyP1Y6kbawA9CbR4G34V7TktRP5gIH4s2/J+NLJ9BCfwEeAl6LBZQklTYbOBj4WelE2sYCYHSuAq4AdgaWLZyLJNVqGrAfcErpRNrIAmD0/gJ8B3iStEvgKmXTkaRq3AgcDbwTuLVwLq3lJMB81gE2IC1BcScqScrrGdJS7FuBOwrnIkmSJEmSJEmSJEmSJEmSJEmSJEmSJEmSJEmSJEmSJEmSJEmSJEmSJEmSJEmSJEmSJEmSJEmSJEmSJEmSJEmSJEmSJEmSJEmSJEmSJEmSJEmSJEmSJEmSJEmSJEmSJEmSJElSd/1/JHNoxcdIWBkAAAAASUVORK5CYII=;" vertex="1" parent="1">
          <mxGeometry x="705" y="210" width="70" height="70" as="geometry" />
        </mxCell>
        <mxCell id="W3RDuf8r377w-uaJnJ6--46" value="&lt;font style=&quot;font-size: 20px;&quot;&gt;Reporting&lt;/font&gt;" style="text;strokeColor=none;align=center;fillColor=none;html=1;verticalAlign=middle;whiteSpace=wrap;rounded=0;" vertex="1" parent="1">
          <mxGeometry x="710" y="290" width="60" height="30" as="geometry" />
        </mxCell>
      </root>
    </mxGraphModel>
  </diagram>
</mxfile>
